HIERARCHY
ROOT Hip
{
	OFFSET	0.0000	0.0000	0.0000
	CHANNELS 6 Xposition Yposition Zposition Xrotation Yrotation Zrotation
	JOINT LowerSpine
	{
		OFFSET	0.0000	9.2812	-5.5247
		CHANNELS 3 Xrotation Yrotation Zrotation
		JOINT MiddleSpine
		{
			OFFSET	0.0000	8.4698	0.3983
			CHANNELS 3 Xrotation Yrotation Zrotation
			JOINT Chest
			{
				OFFSET	0.0000	10.4803	-2.0995
				CHANNELS 3 Xrotation Yrotation Zrotation
				JOINT Neck
				{
					OFFSET	0.0000	23.6171	-0.4420
					CHANNELS 3 Xrotation Yrotation Zrotation
					JOINT Head
					{
						OFFSET	-0.0001	13.3369	3.6276
						CHANNELS 3 Xrotation Yrotation Zrotation
						End Site
						{
							OFFSET	0.0001	18.6349	0.5563
						}
					}
				}
				JOINT LClavicle
				{
					OFFSET	2.1459	22.7917	7.0277
					CHANNELS 3 Xrotation Yrotation Zrotation
					JOINT LShoulder
					{
						OFFSET	12.5367	3.2691	-5.2898
						CHANNELS 3 Xrotation Yrotation Zrotation
						JOINT LForearm
						{
							OFFSET	29.5893	-0.1049	-0.2564
							CHANNELS 3 Xrotation Yrotation Zrotation
							JOINT LHand
							{
								OFFSET	24.6837	0.0716	-0.1479
								CHANNELS 3 Xrotation Yrotation Zrotation
								JOINT LFinger1
								{
									OFFSET	9.5667	0.8367	2.6571
									CHANNELS 3 Xrotation Yrotation Zrotation
									JOINT LFinger11
									{
										OFFSET	3.5784	-0.8726	0.6305
										CHANNELS 3 Xrotation Yrotation Zrotation
										JOINT LFinger12
										{
											OFFSET	2.4429	-0.5958	0.4306
											CHANNELS 3 Xrotation Yrotation Zrotation
											End Site
											{
												OFFSET	1.7384	-0.5189	0.2820
											}
										}
									}
								}
								JOINT LFinger2
								{
									OFFSET	9.7095	0.9662	0.2313
									CHANNELS 3 Xrotation Yrotation Zrotation
									JOINT LFinger21
									{
										OFFSET	4.4245	0.0123	-0.0261
										CHANNELS 3 Xrotation Yrotation Zrotation
										JOINT LFinger22
										{
											OFFSET	2.4525	0.0075	-0.0149
											CHANNELS 3 Xrotation Yrotation Zrotation
											End Site
											{
												OFFSET	2.2028	-0.1556	0.0030
											}
										}
									}
								}
								JOINT LFinger3
								{
									OFFSET	9.2018	0.6448	-2.1770
									CHANNELS 3 Xrotation Yrotation Zrotation
									JOINT LFinger31
									{
										OFFSET	4.0148	-0.2033	-0.2514
										CHANNELS 3 Xrotation Yrotation Zrotation
										JOINT LFinger32
										{
											OFFSET	2.2878	-0.1151	-0.1437
											CHANNELS 3 Xrotation Yrotation Zrotation
											End Site
											{
												OFFSET	2.0228	-0.2487	-0.0956
											}
										}
									}
								}
								JOINT LFinger4
								{
									OFFSET	8.5389	-0.6489	-3.7596
									CHANNELS 3 Xrotation Yrotation Zrotation
									JOINT LFinger41
									{
										OFFSET	2.4695	-0.5150	-0.6817
										CHANNELS 3 Xrotation Yrotation Zrotation
										JOINT LFinger42
										{
											OFFSET	1.8109	-0.3771	-0.5002
											CHANNELS 3 Xrotation Yrotation Zrotation
											End Site
											{
												OFFSET	1.6073	-0.4416	-0.3688
											}
										}
									}
								}
								JOINT LFinger0
								{
									OFFSET	1.9790	-1.4979	1.5003
									CHANNELS 3 Xrotation Yrotation Zrotation
									JOINT LFinger01
									{
										OFFSET	3.6846	-1.2100	2.7780
										CHANNELS 3 Xrotation Yrotation Zrotation
										JOINT LFinger02
										{
											OFFSET	2.4262	-0.8682	1.7480
											CHANNELS 3 Xrotation Yrotation Zrotation
											End Site
											{
												OFFSET	1.7842	-0.6142	1.2217
											}
										}
									}
								}
							}
						}
					}
				}
				JOINT RClavicle
				{
					OFFSET	-2.1459	22.7917	7.0277
					CHANNELS 3 Xrotation Yrotation Zrotation
					JOINT RShoulder
					{
						OFFSET	-12.5389	3.2697	-5.2907
						CHANNELS 3 Xrotation Yrotation Zrotation
						JOINT RForearm
						{
							OFFSET	-29.5893	-0.1049	-0.2564
							CHANNELS 3 Xrotation Yrotation Zrotation
							JOINT RHand
							{
								OFFSET	-24.6837	0.0716	-0.1479
								CHANNELS 3 Xrotation Yrotation Zrotation
								JOINT RFinger1
								{
									OFFSET	-9.5668	0.8368	2.6571
									CHANNELS 3 Xrotation Yrotation Zrotation
									JOINT RFinger11
									{
										OFFSET	-3.5784	-0.8726	0.6305
										CHANNELS 3 Xrotation Yrotation Zrotation
										JOINT RFinger12
										{
											OFFSET	-2.4429	-0.5960	0.4306
											CHANNELS 3 Xrotation Yrotation Zrotation
											End Site
											{
												OFFSET	-1.7384	-0.5189	0.2820
											}
										}
									}
								}
								JOINT RFinger2
								{
									OFFSET	-9.7095	0.9662	0.2314
									CHANNELS 3 Xrotation Yrotation Zrotation
									JOINT RFinger21
									{
										OFFSET	-4.4245	0.0124	-0.0261
										CHANNELS 3 Xrotation Yrotation Zrotation
										JOINT RFinger22
										{
											OFFSET	-2.4525	0.0075	-0.0150
											CHANNELS 3 Xrotation Yrotation Zrotation
											End Site
											{
												OFFSET	-2.2028	-0.1556	0.0030
											}
										}
									}
								}
								JOINT RFinger3
								{
									OFFSET	-9.2018	0.6449	-2.1770
									CHANNELS 3 Xrotation Yrotation Zrotation
									JOINT RFinger31
									{
										OFFSET	-4.0148	-0.2033	-0.2514
										CHANNELS 3 Xrotation Yrotation Zrotation
										JOINT RFinger32
										{
											OFFSET	-2.2879	-0.1151	-0.1437
											CHANNELS 3 Xrotation Yrotation Zrotation
											End Site
											{
												OFFSET	-2.0228	-0.2487	-0.0956
											}
										}
									}
								}
								JOINT RFinger4
								{
									OFFSET	-8.5389	-0.6489	-3.7596
									CHANNELS 3 Xrotation Yrotation Zrotation
									JOINT RFinger41
									{
										OFFSET	-2.4695	-0.5150	-0.6817
										CHANNELS 3 Xrotation Yrotation Zrotation
										JOINT RFinger42
										{
											OFFSET	-1.8109	-0.3770	-0.5002
											CHANNELS 3 Xrotation Yrotation Zrotation
											End Site
											{
												OFFSET	-1.6073	-0.4416	-0.3688
											}
										}
									}
								}
								JOINT RFinger0
								{
									OFFSET	-1.9790	-1.4978	1.5002
									CHANNELS 3 Xrotation Yrotation Zrotation
									JOINT RFinger01
									{
										OFFSET	-3.6846	-1.2102	2.7781
										CHANNELS 3 Xrotation Yrotation Zrotation
										JOINT RFinger02
										{
											OFFSET	-2.4262	-0.8681	1.7480
											CHANNELS 3 Xrotation Yrotation Zrotation
											End Site
											{
												OFFSET	-1.7842	-0.6142	1.2217
											}
										}
									}
								}
							}
						}
					}
				}
			}
		}
	}
	JOINT RThigh
	{
		OFFSET	-10.9736	4.1953	-0.9002
		CHANNELS 3 Xrotation Yrotation Zrotation
		JOINT RShin
		{
			OFFSET	-0.7945	-43.1846	0.0000
			CHANNELS 3 Xrotation Yrotation Zrotation
			JOINT RFoot
			{
				OFFSET	0.0000	-42.4047	0.0000
				CHANNELS 3 Xrotation Yrotation Zrotation
				JOINT RToe
				{
					OFFSET	0.0000	-4.6606	9.7460
					CHANNELS 3 Xrotation Yrotation Zrotation
					End Site
					{
						OFFSET	0.0000	0.0000	6.5382
					}
				}
			}
		}
	}
	JOINT LThigh
	{
		OFFSET	10.9735	4.1956	-0.9002
		CHANNELS 3 Xrotation Yrotation Zrotation
		JOINT LShin
		{
			OFFSET	0.7945	-43.1849	0.0000
			CHANNELS 3 Xrotation Yrotation Zrotation
			JOINT LFoot
			{
				OFFSET	0.0000	-42.4047	0.0000
				CHANNELS 3 Xrotation Yrotation Zrotation
				JOINT LToe
				{
					OFFSET	0.0000	-4.6607	9.7461
					CHANNELS 3 Xrotation Yrotation Zrotation
					End Site
					{
						OFFSET	0.0000	0.0000	6.5382
					}
				}
			}
		}
	}
}
MOTION
Frames:	7
Frame Time: 0.0333333000
	-9.6245	65.2535	-105.0010	30.951320	-44.484450	29.952190	0.000000	0.000000	0.000000	-4.047834	4.186625	-0.168557	-12.462160	14.050970	-2.716148	-10.470210	0.337983	-0.901907	-2.523046	-0.033978	0.655201	0.000000	0.000000	5.218011	5.576301	-5.703867	7.595739	0.000000	1.579149	0.000000	0.000000	0.000000	0.000000	0.000000	0.000000	0.000000	0.000000	0.000000	0.000000	0.000000	0.000000	0.000000	0.000000	0.000000	0.000000	0.000000	0.000000	0.000000	0.000000	0.000000	0.000000	0.000000	0.000000	0.000000	0.000000	0.000000	0.000000	0.000000	0.000000	0.000000	0.000000	0.000000	0.000000	0.000000	0.000000	0.000000	0.000000	0.000000	0.000000	0.000000	0.000000	0.000000	0.000000	0.000000	0.000000	0.000000	0.000000	0.000000	0.000000	0.000000	11.577620	21.389340	11.422000	54.821350	0.011819	7.682877	0.000282	0.000000	0.000000	0.000000	0.000000	0.000000	0.000000	0.000000	0.000000	0.000000	0.000000	0.000000	0.000000	0.000000	0.000000	0.000000	0.000000	0.000000	0.000000	0.000000	0.000000	0.000000	0.000000	0.000000	0.000000	0.000000	0.000000	0.000000	0.000000	0.000000	0.000000	0.000000	0.000000	0.000000	0.000000	0.000000	0.000000	0.000000	0.000000	0.000000	0.000000	0.000000	0.000000	0.000000	0.000000	0.000000	0.000000	0.000000	0.000000	-58.432550	-25.107100	-17.776430	60.444320	0.000005	-0.000003	-8.310110	-5.277540	-3.016124	-12.620290	0.000000	0.000000	-46.484440	-10.187240	23.483840	25.688740	0.000003	0.000000	6.827431	-3.006669	-1.226285	-1.127422	0.000000	0.000000
	-9.1081	63.6795	-103.4674	30.727860	-42.867850	29.270320	0.000000	0.000000	0.000000	-3.976148	4.218585	-0.324768	-12.090260	14.183850	-3.182936	-10.701490	0.394625	-1.047212	-2.500066	-0.035127	0.679561	0.000000	0.000000	4.011490	6.181731	-4.998009	4.855065	0.000000	1.680749	0.000000	0.000000	0.000000	0.000000	0.000000	0.000000	0.000000	0.000000	0.000000	0.000000	0.000000	0.000000	0.000000	0.000000	0.000000	0.000000	0.000000	0.000000	0.000000	0.000000	0.000000	0.000000	0.000000	0.000000	0.000000	0.000000	0.000000	0.000000	0.000000	0.000000	0.000000	0.000000	0.000000	0.000000	0.000000	0.000000	0.000000	0.000000	0.000000	0.000000	0.000000	0.000000	0.000000	0.000000	0.000000	0.000000	0.000000	0.000000	0.000000	0.000000	0.000000	11.527840	20.581150	12.722850	54.442230	0.012376	7.862231	0.000281	0.000000	0.000000	0.000000	0.000000	0.000000	0.000000	0.000000	0.000000	0.000000	0.000000	0.000000	0.000000	0.000000	0.000000	0.000000	0.000000	0.000000	0.000000	0.000000	0.000000	0.000000	0.000000	0.000000	0.000000	0.000000	0.000000	0.000000	0.000000	0.000000	0.000000	0.000000	0.000000	0.000000	0.000000	0.000000	0.000000	0.000000	0.000000	0.000000	0.000000	0.000000	0.000000	0.000000	0.000000	0.000000	0.000000	0.000000	0.000000	-61.256600	-24.771500	-20.428610	64.382750	0.000005	-0.000003	-10.297590	-4.917747	-2.925785	-12.481260	0.000000	0.000000	-49.068420	-11.781600	22.478580	29.172150	0.000003	0.000000	9.686234	-4.052727	-1.530045	-3.310486	0.000000	0.000000
	-8.4270	62.3969	-101.9918	30.751310	-41.459680	28.885110	0.000000	0.000000	0.000000	-3.900267	4.248400	-0.480385	-11.787980	14.314950	-3.512902	-10.914030	0.441902	-1.166256	-2.482920	-0.035963	0.697440	0.000000	0.000000	2.452942	6.768657	-4.140167	2.158400	0.000000	1.621273	0.000000	0.000000	0.000000	0.000000	0.000000	0.000000	0.000000	0.000000	0.000000	0.000000	0.000000	0.000000	0.000000	0.000000	0.000000	0.000000	0.000000	0.000000	0.000000	0.000000	0.000000	0.000000	0.000000	0.000000	0.000000	0.000000	0.000000	0.000000	0.000000	0.000000	0.000000	0.000000	0.000000	0.000000	0.000000	0.000000	0.000000	0.000000	0.000000	0.000000	0.000000	0.000000	0.000000	0.000000	0.000000	0.000000	0.000000	0.000000	0.000000	0.000000	0.000000	11.464470	19.711390	14.007510	53.901150	0.014583	8.422175	0.000295	0.000000	0.000000	0.000000	0.000000	0.000000	0.000000	0.000000	0.000000	0.000000	0.000000	0.000000	0.000000	0.000000	0.000000	0.000000	0.000000	0.000000	0.000000	0.000000	0.000000	0.000000	0.000000	0.000000	0.000000	0.000000	0.000000	0.000000	0.000000	0.000000	0.000000	0.000000	0.000000	0.000000	0.000000	0.000000	0.000000	0.000000	0.000000	0.000000	0.000000	0.000000	0.000000	0.000000	0.000000	0.000000	0.000000	0.000000	0.000000	-63.834760	-24.302390	-22.942820	67.555310	0.000005	-0.000004	-11.357850	-4.498548	-2.728632	-12.723970	0.000000	0.000000	-51.911490	-13.763180	21.047450	33.220740	0.000003	0.000000	11.229550	-5.039741	-1.824012	-5.786903	0.000000	0.000000
	-7.6920	61.4014	-100.4475	30.857580	-40.311500	28.485410	0.000000	0.000000	0.000000	-3.821692	4.276031	-0.634483	-11.535770	14.449100	-3.745692	-11.095860	0.469613	-1.233570	-2.453794	-0.037806	0.736267	0.000000	0.000000	0.752335	7.326998	-3.197657	-0.438371	0.000000	1.277135	0.000000	0.000000	0.000000	0.000000	0.000000	0.000000	0.000000	0.000000	0.000000	0.000000	0.000000	0.000000	0.000000	0.000000	0.000000	0.000000	0.000000	0.000000	0.000000	0.000000	0.000000	0.000000	0.000000	0.000000	0.000000	0.000000	0.000000	0.000000	0.000000	0.000000	0.000000	0.000000	0.000000	0.000000	0.000000	0.000000	0.000000	0.000000	0.000000	0.000000	0.000000	0.000000	0.000000	0.000000	0.000000	0.000000	0.000000	0.000000	0.000000	0.000000	0.000000	11.391250	18.626550	15.651790	53.221620	0.016718	8.451918	0.000431	0.000000	0.000000	0.000000	0.000000	0.000000	0.000000	0.000000	0.000000	0.000000	0.000000	0.000000	0.000000	0.000000	0.000000	0.000000	0.000000	0.000000	0.000000	0.000000	0.000000	0.000000	0.000000	0.000000	0.000000	0.000000	0.000000	0.000000	0.000000	0.000000	0.000000	0.000000	0.000000	0.000000	0.000000	0.000000	0.000000	0.000000	0.000000	0.000000	0.000000	0.000000	0.000000	0.000000	0.000000	0.000000	0.000000	0.000000	0.000000	-65.825510	-23.695830	-25.060700	69.986950	0.000005	-0.000004	-11.679410	-4.304615	-2.627903	-13.308250	0.000000	0.000000	-55.066620	-15.237590	19.505790	37.837940	0.000004	0.000000	10.183350	-5.805192	-2.169630	-6.875719	0.000000	0.000000
	-6.8796	60.5820	-98.7200	30.937640	-39.335370	27.962670	0.000000	0.000000	0.000000	-3.741980	4.301198	-0.786368	-11.289270	14.584190	-3.968489	-11.265620	0.492361	-1.287498	-2.435980	-0.040032	0.781587	0.000000	0.000000	-0.692566	7.977247	-2.399301	-3.216912	0.000000	0.694331	0.000000	0.000000	0.000000	0.000000	0.000000	0.000000	0.000000	0.000000	0.000000	0.000000	0.000000	0.000000	0.000000	0.000000	0.000000	0.000000	0.000000	0.000000	0.000000	0.000000	0.000000	0.000000	0.000000	0.000000	0.000000	0.000000	0.000000	0.000000	0.000000	0.000000	0.000000	0.000000	0.000000	0.000000	0.000000	0.000000	0.000000	0.000000	0.000000	0.000000	0.000000	0.000000	0.000000	0.000000	0.000000	0.000000	0.000000	0.000000	0.000000	0.000000	0.000000	11.307770	17.249510	17.836040	52.392020	0.016211	7.382920	0.000681	0.000000	0.000000	0.000000	0.000000	0.000000	0.000000	0.000000	0.000000	0.000000	0.000000	0.000000	0.000000	0.000000	0.000000	0.000000	0.000000	0.000000	0.000000	0.000000	0.000000	0.000000	0.000000	0.000000	0.000000	0.000000	0.000000	0.000000	0.000000	0.000000	0.000000	0.000000	0.000000	0.000000	0.000000	0.000000	0.000000	0.000000	0.000000	0.000000	0.000000	0.000000	0.000000	0.000000	0.000000	0.000000	0.000000	0.000000	0.000000	-67.272900	-22.900900	-26.912350	71.909740	0.000005	-0.000004	-11.520930	-4.170255	-2.538749	-14.098290	0.000000	0.000000	-58.359140	-15.940500	17.991590	42.642080	0.000004	0.000000	7.126575	-6.437142	-2.603539	-6.090898	0.000000	0.000000
	-5.9848	59.8218	-96.8034	30.960030	-38.478720	27.442840	0.000000	0.000000	0.000000	-3.662718	4.323392	-0.935576	-11.010390	14.722050	-4.243696	-11.432750	0.517779	-1.348008	-2.435275	-0.041452	0.809291	0.000000	0.000000	-1.798817	8.771908	-1.964791	-6.298373	0.000000	0.118112	0.000000	0.000000	0.000000	0.000000	0.000000	0.000000	0.000000	0.000000	0.000000	0.000000	0.000000	0.000000	0.000000	0.000000	0.000000	0.000000	0.000000	0.000000	0.000000	0.000000	0.000000	0.000000	0.000000	0.000000	0.000000	0.000000	0.000000	0.000000	0.000000	0.000000	0.000000	0.000000	0.000000	0.000000	0.000000	0.000000	0.000000	0.000000	0.000000	0.000000	0.000000	0.000000	0.000000	0.000000	0.000000	0.000000	0.000000	0.000000	0.000000	0.000000	0.000000	11.213810	15.607260	20.542560	51.450740	0.012686	5.428440	0.000812	0.000000	0.000000	0.000000	0.000000	0.000000	0.000000	0.000000	0.000000	0.000000	0.000000	0.000000	0.000000	0.000000	0.000000	0.000000	0.000000	0.000000	0.000000	0.000000	0.000000	0.000000	0.000000	0.000000	0.000000	0.000000	0.000000	0.000000	0.000000	0.000000	0.000000	0.000000	0.000000	0.000000	0.000000	0.000000	0.000000	0.000000	0.000000	0.000000	0.000000	0.000000	0.000000	0.000000	0.000000	0.000000	0.000000	0.000000	0.000000	-68.354420	-21.930120	-28.737570	73.510960	0.000005	-0.000004	-11.270610	-3.956177	-2.395655	-14.756390	0.000000	0.000000	-61.481830	-16.207640	16.383740	47.307600	0.000004	-0.000001	3.411620	-6.842190	-3.027041	-4.460023	0.000000	0.000000
	-5.1097	59.1147	-94.8381	31.010130	-37.751690	27.088910	0.000000	0.000000	0.000000	-3.585502	4.341890	-1.081854	-10.721580	14.859990	-4.529476	-11.596870	0.545801	-1.414869	-2.440246	-0.043633	0.851047	0.000000	0.000000	-2.778584	9.645895	-1.908369	-9.555069	0.000000	-0.296711	0.000000	0.000000	0.000000	0.000000	0.000000	0.000000	0.000000	0.000000	0.000000	0.000000	0.000000	0.000000	0.000000	0.000000	0.000000	0.000000	0.000000	0.000000	0.000000	0.000000	0.000000	0.000000	0.000000	0.000000	0.000000	0.000000	0.000000	0.000000	0.000000	0.000000	0.000000	0.000000	0.000000	0.000000	0.000000	0.000000	0.000000	0.000000	0.000000	0.000000	0.000000	0.000000	0.000000	0.000000	0.000000	0.000000	0.000000	0.000000	0.000000	0.000000	0.000000	11.109370	13.805800	23.569670	50.459660	0.008387	3.309180	0.000735	0.000000	0.000000	0.000000	0.000000	0.000000	0.000000	0.000000	0.000000	0.000000	0.000000	0.000000	0.000000	0.000000	0.000000	0.000000	0.000000	0.000000	0.000000	0.000000	0.000000	0.000000	0.000000	0.000000	0.000000	0.000000	0.000000	0.000000	0.000000	0.000000	0.000000	0.000000	0.000000	0.000000	0.000000	0.000000	0.000000	0.000000	0.000000	0.000000	0.000000	0.000000	0.000000	0.000000	0.000000	0.000000	0.000000	0.000000	0.000000	-69.175030	-20.884010	-30.519740	74.818020	0.000005	-0.000004	-11.138230	-3.704024	-2.237462	-15.119600	0.000000	0.000000	-64.318100	-16.286250	14.716460	51.703880	0.000005	-0.000001	0.108296	-6.989541	-3.339755	-3.150909	0.000000	0.000000
